<?xml version="1.0" encoding="UTF-8" standalone="no"?>
<svg
   xmlns:dc="http://purl.org/dc/elements/1.1/"
   xmlns:cc="http://creativecommons.org/ns#"
   xmlns:rdf="http://www.w3.org/1999/02/22-rdf-syntax-ns#"
   xmlns:svg="http://www.w3.org/2000/svg"
   xmlns="http://www.w3.org/2000/svg"
   xmlns:sodipodi="http://sodipodi.sourceforge.net/DTD/sodipodi-0.dtd"
   xmlns:inkscape="http://www.inkscape.org/namespaces/inkscape"
   id="svg8"
   version="1.1"
   viewBox="0 0 210 210"
   height="210mm"
   width="210mm"
   sodipodi:docname="quickshift_i.svg"
   inkscape:version="0.92.2 2405546, 2018-03-11"
   inkscape:export-filename="/home/pascal/git/temp/marketing/ci/quickshift_i.svg.png"
   inkscape:export-xdpi="96"
   inkscape:export-ydpi="96">
  <sodipodi:namedview
     pagecolor="#ffffff"
     bordercolor="#666666"
     borderopacity="1"
     objecttolerance="10"
     gridtolerance="10"
     guidetolerance="10"
     inkscape:pageopacity="0"
     inkscape:pageshadow="2"
     inkscape:window-width="993"
     inkscape:window-height="953"
     id="namedview10"
     showgrid="false"
     inkscape:zoom="0.29734127"
     inkscape:cx="-208.51461"
     inkscape:cy="396.85039"
     inkscape:window-x="0"
     inkscape:window-y="100"
     inkscape:window-maximized="0"
     inkscape:current-layer="svg8" />
  <defs
     id="defs2" />
  <metadata
     id="metadata5">
    <rdf:RDF>
      <cc:Work
         rdf:about="">
        <dc:format>image/svg+xml</dc:format>
        <dc:type
           rdf:resource="http://purl.org/dc/dcmitype/StillImage" />
        <dc:title />
      </cc:Work>
    </rdf:RDF>
  </metadata>
  <g
     transform="translate(0,-87)"
     id="layer1">
    <circle
       r="105"
       cy="192"
       cx="105"
       id="path898"
       style="fill:#000000;fill-opacity:1;stroke-width:0.27548376" />
    <circle
       r="87"
       cy="192"
       cx="105"
       id="path1967"
       style="fill:#ffffff;fill-opacity:1;stroke-width:0.26458332" />
    <path
       id="path896"
       d="m 68.790184,252.22196 c -6.901923,-1.94494 -11.032957,-6.34753 -11.104934,-11.83487 -0.04958,-3.76984 1.063046,-6.29536 3.925396,-8.91141 4.137192,-3.78112 5.631464,-4.14037 17.99571,-4.32644 l 10.597688,-0.15939 V 210.89082 194.79183 L 75.694458,183.50211 c -8.090543,-6.29516 -15.132777,-12.10737 -15.918252,-13.13791 -3.820015,-5.01181 -2.495959,-12.33208 2.943283,-16.27226 5.266803,-3.81523 14.100658,-4.55801 19.826022,-1.66704 2.964921,1.49712 37.935969,29.00451 39.009129,30.68364 0.53782,0.84151 1.17215,2.37229 1.40963,3.40177 0.24859,1.07816 0.4363,10.07078 0.44246,21.20979 l 0.0125,19.33806 h 9.56834 c 10.71066,0 13.23924,0.45471 17.231,3.09874 7.19621,4.76659 7.32406,14.62492 0.24982,19.25082 -5.30314,3.46766 -1.89637,3.20682 -43.00016,3.29224 -28.512331,0.059 -37.148641,-0.0475 -38.676069,-0.47792 z M 103.19003,150.58529 c -1.15009,-0.20563 -3.322647,-0.9506 -4.827898,-1.65498 -5.092705,-2.38319 -7.570695,-5.45898 -8.036855,-9.97578 -0.53371,-5.17095 1.966711,-9.04978 7.641735,-11.85452 3.048978,-1.19109 3.356898,-1.57286 8.843718,-1.64858 5.49073,-0.0758 5.85374,0.43228 8.84868,1.65101 4.02818,1.99081 6.18715,4.3131 7.17775,7.72065 0.89363,3.07405 0.29278,6.85885 -1.48931,9.38102 -3.31685,4.69432 -11.50523,7.57195 -18.15782,6.38118 z"
       style="fill:#000000;stroke-width:0.4370178" />
  </g>
</svg>
